# xmcd CD database file
#
# Track frame offsets:
#	150
#	3697
#	26268
#	46813
#	73827
#	92098
#	110178
#	133954
#	153005
#	175730
#	198270
#	217386
#	240242
#	263412
#	286347
#	325766
#
# Disc length: 4795 seconds
#
# Revision: 10
# Processed by: cddbd v1.5.1PL2 Copyright (c) Steve Scherf et al.
# Submitted via: CDex 1.51
#
DISCID=de12b910
DTITLE=RAM RIDER - PORTABLE DISCO
DYEAR=2005
DGENRE=Techno
TTITLE0=OPENING
TTITLE1=ユメデアエルヨ
TTITLE2=ワンダフルフィルム
TTITLE3=ベッドルームディスコ
TTITLE4=ミラーボール (RAM RIDER x meister)
TTITLE5=Sun Lights Stars (RAM RIDER vs SPACE COWBOY)
TTITLE6=FEELS GONNA FEEL
TTITLE7=HELLO
TTITLE8=SWEET DANCE
TTITLE9=DOOR (RAM RIDER x AKIRA ISHIHAMA)
TTITLE10=SPACE WALK (RAM RIDER x shoes)
TTITLE11=SECRET DANCE
TTITLE12=MUSIC (portable disco radio edit)
TTITLE13=ベッドルームディスコ (琉球ディスコREMIX)
TTITLE14=RAM RIDER Feat. MIDORI - Yellow, Magenta, Cyan and Black
TTITLE15=CCCD
EXTD=YEAR: 2005
EXTT0=
EXTT1=
EXTT2=
EXTT3=
EXTT4=
EXTT5=
EXTT6=
EXTT7=
EXTT8=
EXTT9=
EXTT10=
EXTT11=
EXTT12=
EXTT13=
EXTT14=
EXTT15=
PLAYORDER=
